<svg width="300" height="300" xmlns="http://www.w3.org/2000/svg">
 <!-- Created with Method Draw - http://github.com/duopixel/Method-Draw/ -->
  <ellipse ry="122" rx="122" id="svg_7" cy="149.997496" cx="149.997496" fill-opacity="null" stroke-opacity="null" stroke-width="null" stroke="null" fill="#ffffff"/>
  <path id="svg_2" fill="#e9967a" d="m165.444314,107.110996l-9.788,9.786c-1.945,1.943 -4.658,2.638 -7.158,2.101c-1.541,-0.241 -3.009,-0.936 -4.173,-2.103l-9.783,-9.783c-6.549,-6.546 -15.149,-9.822 -23.749,-9.822c-8.6,0 -17.201,3.273 -23.749,9.822c-12.82,12.823 -12.698,33.374 0.283,47.805c13.232,14.708 49.605,45.027 62.666,55.788c13.061,-10.758 49.442,-41.085 62.677,-55.788c12.978,-14.428 13.1,-34.982 0.28,-47.805c-13.097,-13.093 -34.406,-13.096 -47.506,-0.001z"/>
  <path id="svg_3" fill="#e9967a" d="m149.995,0c-82.839,0 -149.995,67.158 -149.995,149.995s67.156,150 149.995,150s150,-67.163 150,-150s-67.161,-149.995 -150,-149.995zm74.244,166.417c-16.98,18.866 -67.049,59.619 -69.174,61.343c-1.489,1.211 -3.286,1.826 -5.07,1.74c-0.054,0.003 -0.112,0.003 -0.169,0.003c-1.725,0 -3.46,-0.571 -4.902,-1.743c-2.124,-1.725 -52.188,-42.478 -69.163,-61.341c-18.612,-20.689 -18.49,-50.445 0.283,-69.218c19.161,-19.164 50.344,-19.164 69.506,0l4.448,4.448l4.451,-4.451c19.161,-19.161 50.341,-19.159 69.508,0c18.769,18.777 18.891,48.533 0.282,69.219z"/>
</svg>
